<svg width="17" height="20" viewBox="0 0 17 20" fill="none" xmlns="http://www.w3.org/2000/svg">
<path fill-rule="evenodd" clip-rule="evenodd" d="M5.65784 4.5C5.65784 2.88779 6.89804 1.5 8.65784 1.5C10.4176 1.5 11.6578 2.88779 11.6578 4.5V5.5H5.65784V4.5ZM4.15784 7V9.5H5.65784V7H11.6578V9.5H13.1578V7H15.1578V17.75C15.1578 18.1642 14.822 18.5 14.4078 18.5H2.90784C2.49363 18.5 2.15784 18.1642 2.15784 17.75V7H4.15784ZM4.15784 5.5V4.5C4.15784 2.11221 6.01768 0 8.65784 0C11.298 0 13.1578 2.11221 13.1578 4.5V5.5H15.9078H16.6578V6.25V17.75C16.6578 18.9926 15.6504 20 14.4078 20H2.90784C1.6652 20 0.657837 18.9926 0.657837 17.75V6.25V5.5H1.40784H4.15784Z" fill="#1F2026"/>
</svg>
