<svg width="25" height="24" viewBox="0 0 25 24" fill="none" xmlns="http://www.w3.org/2000/svg">
<rect x="4.27393" y="9.5" width="17" height="11" rx="1.5" fill="#7000FF"/>
<rect x="4.27393" y="9.5" width="17" height="11" rx="1.5" stroke="#7000FF"/>
<rect x="5.3739" y="10.6" width="14.8" height="8.8" rx="1" fill="#F0F0FF"/>
<mask id="path-3-inside-1_1_18531" fill="white">
<path d="M5.78394 4.6C5.78394 3.71634 6.50028 3 7.38394 3H18.1739C19.0576 3 19.7739 3.71634 19.7739 4.6H5.78394Z"/>
</mask>
<path d="M5.78394 4.6C5.78394 2.83269 7.21662 1.4 8.98394 1.4H16.5739C18.3412 1.4 19.7739 2.83269 19.7739 4.6C19.7739 4.6 19.0576 4.6 18.1739 4.6H7.38394C6.50028 4.6 5.78394 4.6 5.78394 4.6ZM19.7739 4.6H5.78394H19.7739ZM5.78394 4.6V3V4.6ZM19.7739 3V4.6V3Z" fill="#7000FF" mask="url(#path-3-inside-1_1_18531)"/>
<mask id="path-5-inside-2_1_18531" fill="white">
<path d="M4.78394 7.6C4.78394 6.71634 5.50028 6 6.38394 6H19.1639C20.0476 6 20.7639 6.71634 20.7639 7.6H4.78394Z"/>
</mask>
<path d="M4.78394 7.6C4.78394 6.71634 5.50028 6 6.38394 6H19.1639C20.0476 6 20.7639 6.71634 20.7639 7.6H4.78394Z" fill="#7000FF"/>
<path d="M4.78394 7.6C4.78394 5.83269 6.21662 4.4 7.98394 4.4H17.5639C19.3312 4.4 20.7639 5.83269 20.7639 7.6C20.7639 7.6 20.0476 7.6 19.1639 7.6H6.38394C5.50028 7.6 4.78394 7.6 4.78394 7.6ZM20.7639 7.6H4.78394H20.7639ZM4.78394 7.6V6V7.6ZM20.7639 6V7.6V6Z" fill="#7000FF" mask="url(#path-5-inside-2_1_18531)"/>
</svg>
