<svg width="25" height="24" viewBox="0 0 25 24" fill="none" xmlns="http://www.w3.org/2000/svg">
<path d="M8.54998 4C11.1179 4 12.6 6.15234 12.6 6.15234C12.6 6.15234 14.085 4 16.65 4C19.305 4 21.6 6.07 21.6 8.95C21.6 13.1805 15.1604 17.6197 12.9651 19.5603C12.7582 19.7432 12.4418 19.7432 12.2349 19.5603C10.0405 17.6209 3.59998 13.1803 3.59998 8.95C3.59998 6.07 5.89498 4 8.54998 4Z" fill="white" fill-opacity="0.6"/>
<path d="M3.59998 8.86486C3.59998 6.20297 5.75015 4 8.46484 4C10.5868 4 11.9592 5.35876 12.6 6.18673C13.2408 5.35876 14.6132 4 16.7351 4C19.4506 4 21.6 6.20302 21.6 8.86486C21.6 10.0299 21.1328 11.1862 20.4534 12.265C19.7716 13.3476 18.852 14.3903 17.89 15.3377C16.5567 16.6508 15.0757 17.8387 14.0134 18.6907C13.5618 19.0529 13.1859 19.3544 12.9293 19.579C12.7407 19.7439 12.4592 19.7439 12.2707 19.579C12.014 19.3544 11.6381 19.0529 11.1866 18.6907C10.1243 17.8387 8.64324 16.6508 7.30995 15.3377C6.348 14.3903 5.42834 13.3476 4.74657 12.265C4.06722 11.1862 3.59998 10.0299 3.59998 8.86486ZM8.46484 5C6.30927 5 4.59998 6.74838 4.59998 8.86486C4.59998 9.76743 4.96551 10.7361 5.59275 11.7321C6.21757 12.7242 7.07831 13.706 8.01163 14.6252C9.31031 15.9042 10.6842 17.005 11.7339 17.8461C12.0573 18.1052 12.3498 18.3396 12.6 18.547C12.8501 18.3396 13.1427 18.1052 13.466 17.8461C14.5158 17.005 15.8897 15.9042 17.1883 14.6252C18.1217 13.706 18.9824 12.7242 19.6072 11.7321C20.2345 10.7361 20.6 9.76743 20.6 8.86486C20.6 6.74833 18.8914 5 16.7351 5C14.6406 5 13.4181 6.70211 13.1033 7.21028C12.8727 7.5825 12.3272 7.58249 12.0967 7.21027C11.7819 6.7021 10.5594 5 8.46484 5Z" fill="#1F2026"/>
</svg>
