<svg width="25" height="24" viewBox="0 0 25 24" fill="none" xmlns="http://www.w3.org/2000/svg">
<path fill-rule="evenodd" clip-rule="evenodd" d="M12.5478 3C10.3387 3 8.54785 4.79086 8.54785 7V8C8.54785 10.2091 10.3387 12 12.5478 12C14.7569 12 16.5478 10.2091 16.5478 8V7C16.5478 4.79086 14.7569 3 12.5478 3ZM10.0478 7C10.0478 5.61929 11.1671 4.5 12.5478 4.5C13.9285 4.5 15.0478 5.61929 15.0478 7V8C15.0478 9.38071 13.9285 10.5 12.5478 10.5C11.1671 10.5 10.0478 9.38071 10.0478 8V7ZM6.05017 19.3686C6.52106 16.2577 9.56588 14.5 12.55 14.5C15.5336 14.5 18.5788 16.2577 19.0497 19.3686C19.0524 19.3866 19.0503 19.3972 19.0478 19.4048C19.0448 19.4137 19.0381 19.4269 19.0237 19.442C18.9931 19.4741 18.9372 19.5039 18.8649 19.5039H6.23503C6.16272 19.5039 6.10683 19.4741 6.07623 19.442C6.06179 19.4269 6.05511 19.4137 6.05212 19.4048C6.04959 19.3972 6.04746 19.3865 6.05017 19.3686ZM12.55 13C9.12106 13 5.18822 15.0404 4.56707 19.1441C4.40409 20.2208 5.30512 21.0039 6.23503 21.0039H18.8649C19.7948 21.0039 20.6958 20.2208 20.5328 19.1441C19.9116 15.0404 15.9784 13 12.55 13Z" fill="#1F2026"/>
</svg>
