<svg width="25" height="26" viewBox="0 0 25 26" fill="none" xmlns="http://www.w3.org/2000/svg">
<path d="M8.59998 10.52V8.52002H6.59998V13.02C6.59998 13.2961 6.37612 13.52 6.09998 13.52C5.82384 13.52 5.59998 13.2961 5.59998 13.02V7.52002H8.59998C8.59998 5.1163 10.5522 3.52002 12.6 3.52002C14.6575 3.52002 16.6 5.22558 16.6 7.52002H19.6V20.02C19.6 20.8484 18.9284 21.52 18.1 21.52H13.1C12.8239 21.52 12.6 21.2961 12.6 21.02C12.6 20.7439 12.8239 20.52 13.1 20.52H18.1C18.3761 20.52 18.6 20.2961 18.6 20.02V8.52002H16.6V10.52H15.6V8.52002H9.59998V10.52H8.59998ZM12.6 4.52002C11.0477 4.52002 9.59998 5.72374 9.59998 7.52002H15.6C15.6 5.81446 14.1425 4.52002 12.6 4.52002Z" fill="#1F2026"/>
<path d="M8.09998 14.52C8.37612 14.52 8.59998 14.7439 8.59998 15.02V17.52H11.1C11.3761 17.52 11.6 17.7439 11.6 18.02C11.6 18.2961 11.3761 18.52 11.1 18.52H8.59998V21.02C8.59998 21.2961 8.37612 21.52 8.09998 21.52C7.82384 21.52 7.59998 21.2961 7.59998 21.02V18.52H5.09998C4.82384 18.52 4.59998 18.2961 4.59998 18.02C4.59998 17.7439 4.82384 17.52 5.09998 17.52H7.59998V15.02C7.59998 14.7439 7.82384 14.52 8.09998 14.52Z" fill="#1F2026"/>
</svg>
