<svg width="21" height="18" viewBox="0 0 21 18" fill="none" xmlns="http://www.w3.org/2000/svg">
<path fill-rule="evenodd" clip-rule="evenodd" d="M6.10785 1.5C3.8772 1.5 2.10785 3.30906 2.10785 5.5C2.10785 6.4282 2.48469 7.4436 3.15655 8.5105C3.82477 9.5716 4.74933 10.6274 5.75912 11.6219C7.16554 13.007 8.63965 14.1879 9.77865 15.1003C10.0812 15.3427 10.3601 15.5661 10.6078 15.7694C10.8555 15.5661 11.1344 15.3427 11.437 15.1003C12.576 14.1879 14.0501 13.007 15.4565 11.6219C16.4663 10.6274 17.3909 9.5716 18.0591 8.5105C18.731 7.4436 19.1078 6.4282 19.1078 5.5C19.1078 3.30898 17.3392 1.5 15.1078 1.5C12.9551 1.5 11.6816 3.20226 11.334 3.74742C10.9967 4.27655 10.2189 4.27653 9.88165 3.74742C9.53405 3.20225 8.26058 1.5 6.10785 1.5ZM0.607849 5.5C0.607849 2.49094 3.0385 0 6.10785 0C8.33928 0 9.83275 1.30207 10.6078 2.21581C11.3829 1.30207 12.8764 0 15.1078 0C18.178 0 20.6078 2.49102 20.6078 5.5C20.6078 6.8218 20.0784 8.1189 19.3284 9.3098C18.5747 10.5066 17.5618 11.6539 16.5091 12.6906C15.0507 14.1269 13.4158 15.4384 12.258 16.3672C11.7727 16.7565 11.3712 17.0786 11.1017 17.3144C10.8189 17.5619 10.3967 17.5619 10.1139 17.3144C9.84445 17.0786 9.44295 16.7565 8.95765 16.3672C7.79986 15.4384 6.16497 14.1269 4.70658 12.6906C3.65387 11.6539 2.64093 10.5066 1.88727 9.3098C1.13726 8.1189 0.607849 6.8218 0.607849 5.5Z" fill="#1F2026"/>
</svg>
