<svg width="248" height="32" viewBox="0 0 248 32" fill="none" xmlns="http://www.w3.org/2000/svg">
<g clip-path="url(#clip0_1_18505)">
<path d="M32.5764 15.9882C32.5764 7.15816 25.4182 0 16.5882 0C7.75814 0 0.599976 7.15816 0.599976 15.9882C0.599976 24.8182 7.75814 31.9764 16.5882 31.9764C25.4182 31.9764 32.5764 24.8182 32.5764 15.9882Z" fill="#FFFF00"/>
<path d="M4.35195 14.7932C3.87972 12.1151 3.64361 10.776 3.98444 9.66126C4.28424 8.68064 4.88679 7.82012 5.70573 7.20301C6.63673 6.50144 7.97579 6.26533 10.6539 5.79311L18.744 4.3666C21.4221 3.89437 22.7612 3.65826 23.876 3.99909C24.8566 4.29889 25.7171 4.90144 26.3342 5.72038C27.0358 6.65138 27.2719 7.99044 27.7441 10.6685L28.8537 16.961C29.3259 19.6392 29.562 20.9782 29.2212 22.093C28.9214 23.0736 28.3188 23.9342 27.4999 24.5513C26.5689 25.2528 25.2298 25.4889 22.5517 25.9612L14.4616 27.3877C11.7835 27.8599 10.4444 28.096 9.32964 27.7552C8.34903 27.4554 7.4885 26.8528 6.87139 26.0339C6.16983 25.1029 5.93371 23.7638 5.46149 21.0857L4.35195 14.7932Z" fill="#7000FF"/>
<path d="M21.1487 11.0839C21.6311 11.1901 22.0979 11.2808 22.5559 11.398C23.0426 11.5219 23.5249 11.6724 24.0072 11.8073C24.0758 11.8272 24.1024 11.8538 24.1024 11.9312C24.1001 13.4379 24.1156 14.9468 24.0957 16.4535C24.0736 18.073 23.5625 19.5376 22.578 20.8252C21.4806 22.2611 20.0447 23.1859 18.2881 23.6063C17.5956 23.7722 16.8898 23.8275 16.1796 23.7855C14.4915 23.6859 12.9959 23.0908 11.7171 21.9868C10.3985 20.8518 9.56659 19.4226 9.23251 17.7101C9.13738 17.2234 9.09977 16.73 9.09977 16.2344C9.09755 14.8074 9.09977 13.3826 9.09534 11.9556C9.09534 11.8604 9.12632 11.8272 9.2126 11.8007C10.133 11.5064 11.0711 11.2741 12.0202 11.1016C12.0291 11.0993 12.0379 11.1016 12.06 11.0993C12.06 11.137 12.06 11.1746 12.06 11.21C12.06 12.9998 12.0534 14.7919 12.0645 16.5818C12.0711 17.4845 12.1928 18.3761 12.5003 19.2323C12.7437 19.9115 13.1043 20.5177 13.6419 21.0089C14.1464 21.4669 14.7371 21.7567 15.3986 21.8983C16.3345 22.0996 17.2681 22.0841 18.1863 21.7943C19.2704 21.4536 20.0226 20.7323 20.5049 19.7168C20.7638 19.1748 20.9187 18.5995 21.016 18.0088C21.1244 17.3517 21.151 16.688 21.151 16.0242C21.151 14.4269 21.151 12.8273 21.151 11.2299C21.1487 11.1878 21.1487 11.148 21.1487 11.0839Z" fill="white"/>
<path d="M17.9162 14.4026C17.0334 14.4026 16.1596 14.4026 15.2812 14.4026C15.2812 12.3451 15.2812 10.2897 15.2812 8.23659C15.5556 8.1503 17.3941 8.14366 17.9162 8.22995C17.9162 10.2875 17.9162 12.3451 17.9162 14.4026Z" fill="white"/>
<path d="M21.1487 11.0839C21.6311 11.1901 22.0979 11.2808 22.5559 11.398C23.0426 11.5219 23.5249 11.6724 24.0072 11.8073C24.0758 11.8272 24.1024 11.8538 24.1024 11.9312C24.1001 13.4379 24.1156 14.9468 24.0957 16.4535C24.0736 18.073 23.5625 19.5376 22.578 20.8252C21.4806 22.2611 20.0447 23.1859 18.2881 23.6063C17.5956 23.7722 16.8898 23.8275 16.1796 23.7855C14.4915 23.6859 12.9959 23.0908 11.7171 21.9868C10.3985 20.8518 9.56659 19.4226 9.23251 17.7101C9.13738 17.2234 9.09977 16.73 9.09977 16.2344C9.09755 14.8074 9.09977 13.3826 9.09534 11.9556C9.09534 11.8604 9.12632 11.8272 9.2126 11.8007C10.133 11.5064 11.0711 11.2741 12.0202 11.1016C12.0291 11.0993 12.0379 11.1016 12.06 11.0993C12.06 11.137 12.06 11.1746 12.06 11.21C12.06 12.9998 12.0534 14.7919 12.0645 16.5818C12.0711 17.4845 12.1928 18.3761 12.5003 19.2323C12.7437 19.9115 13.1043 20.5177 13.6419 21.0089C14.1464 21.4669 14.7371 21.7567 15.3986 21.8983C16.3345 22.0996 17.2681 22.0841 18.1863 21.7943C19.2704 21.4536 20.0226 20.7323 20.5049 19.7168C20.7638 19.1748 20.9187 18.5995 21.016 18.0088C21.1244 17.3517 21.151 16.688 21.151 16.0242C21.151 14.4269 21.151 12.8273 21.151 11.2299C21.1487 11.1878 21.1487 11.148 21.1487 11.0839Z" fill="white"/>
<path d="M17.9162 14.4026C17.0334 14.4026 16.1596 14.4026 15.2812 14.4026C15.2812 12.3451 15.2812 10.2897 15.2812 8.23659C15.5556 8.1503 17.3941 8.14366 17.9162 8.22995C17.9162 10.2875 17.9162 12.3451 17.9162 14.4026Z" fill="white"/>
<path d="M21.1487 11.0839C21.6311 11.1901 22.0979 11.2808 22.5559 11.398C23.0426 11.5219 23.5249 11.6724 24.0072 11.8073C24.0758 11.8272 24.1024 11.8538 24.1024 11.9312C24.1001 13.4379 24.1156 14.9468 24.0957 16.4535C24.0736 18.073 23.5625 19.5376 22.578 20.8252C21.4806 22.2611 20.0447 23.1859 18.2881 23.6063C17.5956 23.7722 16.8898 23.8275 16.1796 23.7855C14.4915 23.6859 12.9959 23.0908 11.7171 21.9868C10.3985 20.8518 9.56659 19.4226 9.23251 17.7101C9.13738 17.2234 9.09977 16.73 9.09977 16.2344C9.09755 14.8074 9.09977 13.3826 9.09534 11.9556C9.09534 11.8604 9.12632 11.8272 9.2126 11.8007C10.133 11.5064 11.0711 11.2741 12.0202 11.1016C12.0291 11.0993 12.0379 11.1016 12.06 11.0993C12.06 11.137 12.06 11.1746 12.06 11.21C12.06 12.9998 12.0534 14.7919 12.0645 16.5818C12.0711 17.4845 12.1928 18.3761 12.5003 19.2323C12.7437 19.9115 13.1043 20.5177 13.6419 21.0089C14.1464 21.4669 14.7371 21.7567 15.3986 21.8983C16.3345 22.0996 17.2681 22.0841 18.1863 21.7943C19.2704 21.4536 20.0226 20.7323 20.5049 19.7168C20.7638 19.1748 20.9187 18.5995 21.016 18.0088C21.1244 17.3517 21.151 16.688 21.151 16.0242C21.151 14.4269 21.151 12.8273 21.151 11.2299C21.1487 11.1878 21.1487 11.148 21.1487 11.0839Z" fill="white"/>
<path d="M17.9162 14.4026C17.0334 14.4026 16.1596 14.4026 15.2812 14.4026C15.2812 12.3451 15.2812 10.2897 15.2812 8.23659C15.5556 8.1503 17.3941 8.14366 17.9162 8.22995C17.9162 10.2875 17.9162 12.3451 17.9162 14.4026Z" fill="white"/>
<path d="M21.1487 11.0839C21.6311 11.1901 22.0979 11.2808 22.5559 11.398C23.0426 11.5219 23.5249 11.6724 24.0072 11.8073C24.0758 11.8272 24.1024 11.8538 24.1024 11.9312C24.1001 13.4379 24.1156 14.9468 24.0957 16.4535C24.0736 18.073 23.5625 19.5376 22.578 20.8252C21.4806 22.2611 20.0447 23.1859 18.2881 23.6063C17.5956 23.7722 16.8898 23.8275 16.1796 23.7855C14.4915 23.6859 12.9959 23.0908 11.7171 21.9868C10.3985 20.8518 9.56659 19.4226 9.23251 17.7101C9.13738 17.2234 9.09977 16.73 9.09977 16.2344C9.09755 14.8074 9.09977 13.3826 9.09534 11.9556C9.09534 11.8604 9.12632 11.8272 9.2126 11.8007C10.133 11.5064 11.0711 11.2741 12.0202 11.1016C12.0291 11.0993 12.0379 11.1016 12.06 11.0993C12.06 11.137 12.06 11.1746 12.06 11.21C12.06 12.9998 12.0534 14.7919 12.0645 16.5818C12.0711 17.4845 12.1928 18.3761 12.5003 19.2323C12.7437 19.9115 13.1043 20.5177 13.6419 21.0089C14.1464 21.4669 14.7371 21.7567 15.3986 21.8983C16.3345 22.0996 17.2681 22.0841 18.1863 21.7943C19.2704 21.4536 20.0226 20.7323 20.5049 19.7168C20.7638 19.1748 20.9187 18.5995 21.016 18.0088C21.1244 17.3517 21.151 16.688 21.151 16.0242C21.151 14.4269 21.151 12.8273 21.151 11.2299C21.1487 11.1878 21.1487 11.148 21.1487 11.0839Z" fill="white"/>
<path d="M17.9162 14.4026C17.0334 14.4026 16.1596 14.4026 15.2812 14.4026C15.2812 12.3451 15.2812 10.2897 15.2812 8.23659C15.5556 8.1503 17.3941 8.14366 17.9162 8.22995C17.9162 10.2875 17.9162 12.3451 17.9162 14.4026Z" fill="white"/>
<path d="M136.792 9.43591C134.404 9.43591 132.6 10.4096 131.701 11.8771C130.795 10.4096 128.82 9.43591 126.761 9.43591C122.714 9.43591 120.649 11.9937 120.649 15.1687V22.7805H124.429V15.7036C124.429 14.195 125.231 12.8509 127.056 12.8509C128.888 12.8509 129.835 14.1332 129.835 15.6487V22.7805H133.629V15.6487C133.629 14.1264 134.521 12.8509 136.339 12.8509C138.171 12.8509 139.021 14.195 139.021 15.7036V22.7805H142.802V15.1687C142.795 11.9937 140.846 9.43591 136.792 9.43591Z" fill="#7000FF"/>
<path d="M159.651 18.186V9.68964H155.912L155.94 11.7537C155.123 10.5399 153.696 9.43591 151.158 9.43591C146.794 9.43591 144.551 12.8235 144.551 16.2248C144.469 19.6672 147.007 23.0891 150.973 23.0891C153.072 23.0891 154.993 22.1565 155.912 20.5176C156.283 21.601 157.223 22.7874 159.171 22.7874H161.332V19.6124H160.728C159.974 19.6124 159.651 19.3312 159.651 18.186ZM151.947 19.8112C149.799 19.8112 148.194 18.33 148.194 16.2522C148.194 14.2018 149.799 12.748 151.947 12.748C154.163 12.748 155.768 14.2018 155.768 16.2522C155.768 18.33 154.163 19.8112 151.947 19.8112Z" fill="#7000FF"/>
<path d="M163.74 14.1539V22.7806H167.52V16.9929C167.52 14.7505 169.146 13.3104 171.218 13.3104H173.688V9.41541H171.836C169.551 9.41541 167.884 11.3629 167.52 12.4944V12.0966V9.68286H163.74V14.1539Z" fill="#7000FF"/>
<path d="M175.925 22.7805H179.705V16.3687L185.578 22.7805H190.037L183.952 16.0533L189.571 9.68961H185.125L179.705 15.827V5.63684H175.925V22.7805Z" fill="#7000FF"/>
<path d="M194.462 17.2603C194.462 18.7003 195.21 20.1541 197.625 20.1541C199.841 20.1541 200.163 18.8238 200.163 18.8238H204.314C204.314 18.8238 203.93 23.0891 197.625 23.0891C193.234 23.0891 190.483 20.6341 190.483 16.2522C190.483 11.8634 193.234 9.43591 197.584 9.43591C201.872 9.43591 204.637 11.8634 204.637 16.2522C204.637 16.7322 204.554 17.2671 204.554 17.2671H194.462V17.2603ZM194.51 14.9561H200.596C200.596 13.8864 199.978 12.3709 197.577 12.3709C195.21 12.3709 194.51 13.8932 194.51 14.9561Z" fill="#7000FF"/>
<path d="M213.261 19.4959C211.964 19.4959 211.497 18.9198 211.497 17.0957V12.4807H215.593V9.44278H211.497V6.83008H209.453L205.81 10.3137V12.4875H207.717V17.5963C207.717 21.2651 209.508 22.808 213.261 22.808H215.6V19.5027H213.261V19.4959Z" fill="#7000FF"/>
<path d="M84.2802 16.4853C84.2802 18.5563 83.107 19.5163 81.3644 19.5163C79.6218 19.5163 78.4898 18.5769 78.4898 16.4853V9.6416H74.7301V16.6156C74.7301 21.1621 78.5309 22.9382 81.3918 22.9382C84.2527 22.9382 88.0604 21.1553 88.0604 16.6156V9.6416H84.3007L84.2802 16.4853Z" fill="#7000FF"/>
<path d="M71.5468 12.8166V9.6416H59.328V12.8166H66.566L59.0398 19.5232V22.6982H72.0133V19.5232H64.0344L71.5468 12.8166Z" fill="#7000FF"/>
<path d="M106.886 9.3949C104.505 9.3949 102.708 10.3618 101.816 11.8362C100.91 10.3618 98.9414 9.3949 96.8969 9.3949C92.8766 9.3949 90.7841 11.9528 90.7841 15.1209V22.6984H94.5437V15.649C94.5437 14.1335 95.3395 12.8031 97.1645 12.8031C97.535 12.7825 97.9054 12.8374 98.2553 12.9677C98.6052 13.098 98.9208 13.3037 99.1815 13.5711C99.4422 13.8317 99.648 14.154 99.7784 14.5038C99.9088 14.8535 99.9636 15.2238 99.9431 15.5941V22.6984H103.703V15.5941C103.703 14.0786 104.595 12.8031 106.399 12.8031C108.203 12.8031 109.075 14.1335 109.075 15.649V22.6984H112.834V15.1278C112.834 11.9665 110.893 9.40175 106.852 9.40175L106.886 9.3949Z" fill="#7000FF"/>
<path d="M52.7966 16.4853C52.7966 18.5563 51.6235 19.5163 49.8946 19.5163C48.1657 19.5163 47.0062 18.5769 47.0062 16.4853V9.6416H43.2466V16.6156C43.2466 21.1621 47.0337 22.9382 49.9083 22.9382C52.7829 22.9382 56.5631 21.1553 56.5631 16.6156V9.6416H52.8035L52.7966 16.4853Z" fill="#7000FF"/>
</g>
<defs>
<clipPath id="clip0_1_18505">
<rect width="215" height="32" fill="white" transform="translate(0.599976)"/>
</clipPath>
</defs>
</svg>
